<?xml version="1.0" encoding="utf-8"?>
<!-- Uploaded to: SVG Repo, www.svgrepo.com, Generator: SVG Repo Mixer Tools -->
<svg width="800px" height="800px" viewBox="0 0 1024 1024" class="icon"  version="1.1" xmlns="http://www.w3.org/2000/svg"><path d="M512 512m-480 0a480 480 0 1 0 960 0 480 480 0 1 0-960 0Z" fill="#FFE5CF" /><path d="M262.4 307.2c0-19.2 19.2-38.4 38.4-38.4h435.2c19.2 0 38.4 12.8 38.4 38.4 0 19.2-19.2 38.4-38.4 38.4H294.4c-19.2 0-32-19.2-32-38.4z" fill="#FF8746" /><path d="M294.4 307.2v448c0 19.2 25.6 32 38.4 19.2l32-32 32 25.6c6.4 6.4 25.6 6.4 32 0l32-32 32 32c6.4 6.4 25.6 6.4 32 0l32-32 32 32c6.4 6.4 25.6 6.4 32 0l32-32 32 32c12.8 12.8 38.4 6.4 38.4-19.2V307.2H294.4z" fill="#FF9D68" /><path d="M371.2 403.2c0-6.4 6.4-12.8 12.8-12.8h217.6c6.4 0 12.8 6.4 12.8 12.8s-6.4 12.8-12.8 12.8H377.6c-6.4 0-6.4-6.4-6.4-12.8zM371.2 473.6c0-6.4 6.4-12.8 12.8-12.8h166.4c6.4 0 12.8 6.4 12.8 12.8s-6.4 12.8-12.8 12.8H377.6c-6.4 0-6.4-6.4-6.4-12.8zM371.2 550.4c0-6.4 6.4-12.8 12.8-12.8h262.4c6.4 0 12.8 6.4 12.8 12.8s-6.4 12.8-12.8 12.8H377.6c-6.4 0-6.4-6.4-6.4-12.8zM371.2 620.8c0-6.4 6.4-12.8 12.8-12.8h217.6c6.4 0 12.8 6.4 12.8 12.8s-6.4 12.8-12.8 12.8H377.6c-6.4 0-6.4-6.4-6.4-12.8z" fill="#F27632" /></svg>